<svg xmlns="http://www.w3.org/2000/svg" viewBox="0 0 32 32">
  <defs>
    <radialGradient id="bg" cx="0.5" cy="0.5" r="0.75">
      <stop offset="0" stop-color="#1e1b4b"/>
      <stop offset="1" stop-color="#020617"/>
    </radialGradient>
    <radialGradient id="dot" cx="0.5" cy="0.5" r="0.5">
      <stop offset="0" stop-color="#fef3c7"/>
      <stop offset="0.45" stop-color="#f472b6"/>
      <stop offset="1" stop-color="#1e1b4b" stop-opacity="0"/>
    </radialGradient>
    <linearGradient id="mob" x1="0" y1="0" x2="1" y2="0">
      <stop offset="0" stop-color="#22d3ee"/>
      <stop offset="0.5" stop-color="#a78bfa"/>
      <stop offset="1" stop-color="#f472b6"/>
    </linearGradient>
  </defs>
  <rect width="32" height="32" rx="6" fill="url(#bg)"/>
  <g transform="translate(16 16)">
    <path d="M -10 0 C -10 -7, -3 -7, 0 0 C 3 7, 10 7, 10 0 C 10 -7, 3 -7, 0 0 C -3 7, -10 7, -10 0 Z"
      fill="none" stroke="url(#mob)" stroke-width="1.4" opacity="0.85"/>
    <path d="M -10 0 C -10 7, -3 7, 0 0 C 3 -7, 10 -7, 10 0 C 10 7, 3 7, 0 0 C -3 -7, -10 -7, -10 0 Z"
      fill="none" stroke="url(#mob)" stroke-width="1.4" opacity="0.45"/>
    <circle cx="-9" cy="0" r="1.4" fill="url(#dot)"/>
    <circle cx="9" cy="0" r="1.4" fill="url(#dot)"/>
    <circle cx="0" cy="0" r="1.6" fill="url(#dot)"/>
    <circle cx="-4" cy="-3" r="0.8" fill="url(#dot)"/>
    <circle cx="4" cy="3" r="0.8" fill="url(#dot)"/>
  </g>
</svg>
