<?xml version="1.0" encoding="UTF-8"?>
<svg xmlns="http://www.w3.org/2000/svg" width="1024" height="1024" viewBox="0 0 96 96" role="img" aria-label="people-dana-dark">

    <defs>
      <linearGradient id="brand-gradient" x1="0%" y1="0%" x2="100%" y2="100%"><stop offset="0%" stop-color="#22D3EE"/><stop offset="20%" stop-color="#7DD3FC"/><stop offset="40%" stop-color="#8B5CF6"/><stop offset="60%" stop-color="#A78BFA"/><stop offset="80%" stop-color="#EC4899"/><stop offset="100%" stop-color="#F472B6"/></linearGradient>
      <radialGradient id="brand-glass" cx="38%" cy="28%" r="78%">
        <stop offset="0%" stop-color="#FFFFFF" stop-opacity="0.72"/>
        <stop offset="28%" stop-color="#7DD3FC" stop-opacity="0.42"/>
        <stop offset="66%" stop-color="#8B5CF6" stop-opacity="0.28"/>
        <stop offset="100%" stop-color="#EC4899" stop-opacity="0.12"/>
      </radialGradient>
      <filter id="soft-glow" x="-60%" y="-60%" width="220%" height="220%">
        <feGaussianBlur stdDeviation="2.2" result="blur"/>
        <feMerge><feMergeNode in="blur"/><feMergeNode in="SourceGraphic"/></feMerge>
      </filter>
      <filter id="wide-glow" x="-80%" y="-80%" width="260%" height="260%">
        <feGaussianBlur stdDeviation="5" result="blur"/>
        <feMerge><feMergeNode in="blur"/><feMergeNode in="SourceGraphic"/></feMerge>
      </filter>
    </defs>

      <g id="icon-structure">
        <g id="portrait">
          <circle cx="48" cy="48" r="39" fill="#11122A" stroke="#E6EEFF" stroke-width="3"/>
          <path d="M24 84 C27 69 35 63 48 63 C61 63 69 69 72 84" fill="#64748B" opacity="0.82"/>
          <circle cx="48" cy="49" r="20" fill="#8E5A45"/>
          <path d="M25 47 C23 24 69 19 71 47 C63 35 34 34 25 47" fill="#0F766E" opacity="0.96"/>
          <path d="M39 50h2M55 50h2M43 59c3 3 7 3 10 0" fill="none" stroke="#E6EEFF" stroke-width="1.8" stroke-linecap="round" stroke-linejoin="round" opacity="1"/>
          <path d="M17 63 A38 38 0 0 1 29 21" fill="none" stroke="url(#brand-gradient)" stroke-width="3.5" stroke-linecap="round" stroke-linejoin="round" opacity="0.9"/>
        </g>
      </g>
      <g id="energy-trail" opacity="0"><circle cx="18" cy="62" r="3" fill="#22D3EE"/></g>
    
</svg>
